<?xml version="1.0" encoding="UTF-8"?>
<svg id="_레이어_1" data-name="레이어 1" xmlns="http://www.w3.org/2000/svg" width="39.52mm" height="40.59mm" viewBox="0 0 112.03 115.07">
    <defs>
        <style>
            .cls-1 {
            fill: #956134;
            }

            .cls-2 {
            fill: #b08962;
            }

            .cls-2, .cls-3, .cls-4, .cls-5 {
            fill-rule: evenodd;
            }

            .cls-3, .cls-6 {
            fill: #006934;
            }

            .cls-7 {
            fill: #e83828;
            }

            .cls-8 {
            fill: #601986;
            }

            .cls-4 {
            fill: #8fc31f;
            }

            .cls-5 {
            fill: #f39800;
            }
        </style>
    </defs>
    <path class="cls-5" d="M55.3,50.29c.74.53.08,1.32-.65,1.02l-12.52-4.23c-1.1-.36-.08-3.73,1.46-5.62.81-.99,2.76-3.11,3.58-2.02l8.12,10.86h0ZM56.36,31.83h0c-11.04,0-19.99,8.96-19.99,20s8.95,19.99,19.99,19.99,19.99-8.95,19.99-19.99-8.95-20-19.99-20h0ZM56.36,33.76h0c-9.98,0-18.07,8.09-18.07,18.07s8.09,18.07,18.07,18.07,18.07-8.09,18.07-18.07-8.09-18.07-18.07-18.07h0ZM54.61,51.45h0c.91-.08.91.97.16,1.19l-12.31,4.81c-1.07.43-2.46-2.81-2.49-5.25-.02-1.28.12-4.16,1.44-3.86l13.2,3.1h0ZM54.82,52.79h0c.64-.65,1.32.15.89.81l-6.34,11.6c-.54,1.02-3.69-.57-5.28-2.42-.83-.97-2.58-3.27-1.37-3.88l12.1-6.11h0ZM55.85,53.67h0c.08-.91,1.11-.73,1.2.05l2.59,12.96c.24,1.14-3.19,1.94-5.6,1.55-1.26-.21-4.08-.84-3.54-2.1l5.35-12.46h0ZM57.21,53.69h0c-.52-.74.38-1.27.95-.73l10.32,8.26c.91.72-1.2,3.54-3.3,4.78-1.1.65-3.67,1.98-4.06.68l-3.92-12.99h0ZM58.25,52.83h0c-.88-.24-.53-1.21.26-1.17l13.21-.3c1.15-.04,1.35,3.48.55,5.78-.42,1.2-1.53,3.87-2.67,3.13l-11.35-7.43h0ZM58.51,51.5h0c-.83.38-1.18-.59-.56-1.07l9.92-8.72c.86-.77,3.28,1.8,4.14,4.08.45,1.19,1.31,3.95-.04,4.11l-13.47,1.6h0ZM57.84,50.32h0c-.39.83-1.29.31-1.11-.45l1.99-13.07c.16-1.15,3.67-.72,5.79.46,1.11.62,3.55,2.18,2.61,3.17l-9.28,9.89h0ZM56.58,49.84h0c.23.88-.79,1.06-1.15.36l-6.87-11.28c-.61-.99,2.34-2.91,4.73-3.37,1.25-.24,4.12-.6,4.04.75l-.76,13.54h0Z"/>
    <path class="cls-2" d="M54.01,25.36c-1.46-2.07-1.36-4.65.22-5.76,1.58-1.11,4.04-.33,5.5,1.74,1.46,2.07,1.36,4.66-.22,5.77-1.58,1.11-4.04.33-5.5-1.74h0ZM51.88,25.36c-2.57-3.66-2.66-8.02-.19-9.75,2.46-1.73,6.54-.17,9.11,3.48,2.57,3.65,2.65,8.02.19,9.75-2.46,1.73-6.54.17-9.11-3.48h0ZM51.08,25.57c-2.77-3.94-2.73-8.73.08-10.71,2.81-1.98,7.34-.39,10.11,3.55,2.77,3.94,2.73,8.74-.08,10.71-2.81,1.98-7.34.39-10.11-3.55h0Z"/>
    <path class="cls-2" d="M59.25,6.68c1.32-1.72,3.45-2.3,4.76-1.3,1.31,1,1.31,3.21,0,4.93-1.32,1.72-3.45,2.31-4.76,1.3-1.31-1-1.31-3.21,0-4.93h0ZM58.7,4.95c2.32-3.04,5.86-4.23,7.91-2.67,2.05,1.56,1.82,5.29-.5,8.33-2.32,3.03-5.86,4.23-7.91,2.66-2.05-1.56-1.82-5.29.5-8.33h0ZM58.32,4.35c2.5-3.27,6.42-4.47,8.76-2.69s2.2,5.89-.3,9.16c-2.5,3.27-6.42,4.48-8.76,2.69-2.34-1.79-2.2-5.89.3-9.16h0Z"/>
    <path class="cls-6" d="M107.2,23.75c13.02,33.13-4.24,69.33-30.73,73.55-2.91.26-2.29-1.55.57-2.79,3.51-1.52,9.66-5.08,7.09-5.66-1.3-.29-7,3.68-9.9,4.94-4.96,2.15-5.96.33-2.97-1.91,3.24-2.43,10.32-6.88,11.47-8.3.57-.72.58-2.18-3.25.24-3.82,2.42-11.5,5.66-13.18,5.48-1.68-.18-1.81-2.09,5.78-6.29,9.26-5.13,8.65-7.65,4.46-6.15-5.89,2.12-7.73,7.59-9.62,5.95-1.89-1.63,4.93-9.43,11.22-12.79,6.29-3.37,11.32-3.07,14.75-2.91,15.99.76,21.85-18.87,9.95-39.68-3.54-6.19.6-10.1,4.35-3.68Z"/>
    <path class="cls-6" d="M79.72,64.24s7.38-6,4.99-13.33c-.97-2.53-3.77-3.63-5.7-.81-.98,1.47-2.04,4.13-.46,7.35.76,1.77-.01,3.3-1.18,5.1-.76,1.16.5,3.01,2.36,1.7Z"/>
    <path class="cls-1" d="M85.08,96.4c-1.41.29-2.98,5.27-5.43,6.27-1.97.81-4.06-.64-7.51-3.51-1.59-1.32-3.83-2.49-6.45-3.33-.03-1.23-.73-3.45-1.33-3.43-.46.01-1.93,1.4-2.96,2.43-3.1-.47-6.46-.46-9.76.26-6.2,1.35-6.16,7.27.64,12.66,1.66,1.32,3.37,2.39,5.14,3.16.52,1.23,1.72,3.92,2.24,4.13.58.24,2.13-1.75,2.53-2.87,3.94.38,8.29-.79,13.31-4.13,6.67-4.44,10.66.58,12.35-.14,2.89-1.22-1.35-11.79-2.76-11.5ZM53.2,101.72c-.64.16-1.3-.22-1.46-.87-.16-.64.22-1.29.87-1.46.64-.16,1.3.22,1.46.87.16.64-.22,1.3-.86,1.46Z"/>
    <path class="cls-3" d="M98.52,97.73c0,2.25-1.83,4.08-4.08,4.08s-4.08-1.83-4.08-4.08,1.83-4.08,4.08-4.08,4.08,1.83,4.08,4.08Z"/>
    <path class="cls-3" d="M98.52,90.19c0,.87-.71,1.57-1.57,1.57s-1.58-.71-1.58-1.57.71-1.58,1.58-1.58,1.57.71,1.57,1.58Z"/>
    <path class="cls-3" d="M111.22,71.92c0,.87-.71,1.58-1.58,1.58s-1.57-.71-1.57-1.58.71-1.57,1.57-1.57,1.58.71,1.58,1.57Z"/>
    <path class="cls-3" d="M76.33,67.47c0,.87-.71,1.57-1.57,1.57s-1.58-.7-1.58-1.57.71-1.57,1.58-1.57,1.57.71,1.57,1.57Z"/>
    <path class="cls-6" d="M42.52,105.68c-.78,0-1.43-.23-1.45-.24-.23-.08-.38-.29-.4-.53,0-.08-.09-2.07,1.27-3.07,1.23-.91,3.61-.94,3.88-.94.19,0,.37.09.48.24.11.15.15.35.09.53-.08.26-.79,2.53-2.02,3.45-.5.37-1.12.56-1.85.56ZM41.88,104.42c.18.03.4.06.63.06.46,0,.85-.11,1.14-.32.53-.4.99-1.29,1.29-2.01-.77.08-1.77.26-2.29.65-.54.4-.71,1.15-.76,1.62Z"/>
    <path class="cls-6" d="M26.7,103.46c.22.75.19,1.43.19,1.46-.01.24-.17.45-.4.53-.08.03-1.95.68-3.3-.34-1.22-.92-1.93-3.19-2-3.45-.05-.18-.02-.38.09-.53.11-.15.29-.24.48-.24.27,0,2.65.03,3.88.95.5.37.86.92,1.07,1.61ZM25.67,104.43c-.02-.18-.05-.4-.12-.62-.13-.45-.35-.78-.63-1-.53-.4-1.52-.58-2.29-.66.29.72.75,1.62,1.28,2.01.54.4,1.3.35,1.77.27Z"/>
    <path class="cls-6" d="M108.78,80.22c-.1-.06-.18-.14-.24-.24-.09-.16-.89-1.64-.18-2.82.65-1.07,2.54-1.7,2.75-1.77.17-.05.36-.03.51.06.15.09.26.25.29.42.04.22.37,2.19-.27,3.26-.71,1.18-2.39,1.17-2.58,1.17-.1,0-.2-.03-.28-.08ZM110.77,76.85c-.55.25-1.14.6-1.35.94-.21.34-.09.87.04,1.22.38-.05.9-.2,1.1-.53.21-.35.24-1.03.2-1.63Z"/>
    <path class="cls-6" d="M14.13,33.18c-.08-.04-.14-.11-.19-.19-.07-.13-.69-1.28-.14-2.2.5-.84,1.98-1.33,2.15-1.38.13-.04.28-.02.4.05.12.07.2.19.23.33.03.17.29,1.7-.21,2.54-.55.92-1.86.91-2.01.91-.08,0-.15-.02-.22-.06ZM15.68,30.55c-.43.2-.89.47-1.05.74-.16.27-.07.68.03.95.3-.04.7-.15.86-.42.16-.27.19-.8.16-1.27Z"/>
    <g>
        <path class="cls-6" d="M104.45,89.76c-.19.07-.41.04-.58-.09-.13-.1-3.13-2.35-2.78-5.17.33-2.69,3.84-5.85,3.99-5.98.13-.12.31-.17.49-.15.18.02.34.12.44.27.11.17,2.76,4.08,2.43,6.77-.35,2.82-3.81,4.28-3.96,4.35-.01,0-.02,0-.03.01ZM105.38,79.96c-1.1,1.09-2.86,3.14-3.05,4.7-.19,1.55,1.19,3.09,2,3.79.77-.39,2.67-1.52,2.87-3.19.19-1.56-1.02-3.97-1.82-5.3Z"/>
        <path class="cls-6" d="M100.51,94.26c-.23.08-.5.02-.68-.18-.23-.26-.2-.65.06-.88,4.52-3.93,4.88-9.03,4.88-9.08.02-.34.32-.6.66-.58.34.02.61.32.58.66-.01.23-.4,5.68-5.31,9.95-.06.05-.13.09-.2.12Z"/>
    </g>
    <g>
        <path class="cls-6" d="M9.98,29.31c-.07-.11-1.62-2.77-.47-4.79,1.1-1.93,4.75-3.2,4.91-3.26.14-.05.29-.03.42.04.13.07.22.2.25.34.03.16.8,3.95-.3,5.88-1.15,2.02-4.23,2.03-4.36,2.03-.17,0-.33-.09-.42-.22,0,0-.01-.02-.02-.02ZM10.39,25.03c-.68,1.2,0,2.87.32,3.5.88-.06,2.54-.4,3.17-1.51.64-1.12.48-3.32.29-4.58-1.18.48-3.15,1.47-3.79,2.58Z"/>
        <path class="cls-6" d="M10.38,34.22c.11.17.32.26.53.21.28-.06.45-.33.39-.61-1.04-4.79,1.22-8.32,1.24-8.35.15-.24.09-.55-.15-.71-.24-.15-.55-.09-.71.15-.1.16-2.52,3.92-1.39,9.13.01.06.04.12.08.18Z"/>
    </g>
    <g>
        <path class="cls-6" d="M29.27,104.66c-.33,0-.6-.27-.6-.6,0-2.69,1.89-4.88,4.22-4.88.92,0,1.75.4,2.39,1.15.84.98,1.25,2.46,1.05,3.79-.05.33-.36.55-.68.5-.33-.05-.55-.36-.5-.68.15-.98-.16-2.11-.78-2.83-.29-.33-.78-.73-1.48-.73-1.67,0-3.02,1.65-3.02,3.68,0,.33-.27.6-.6.6Z"/>
        <path class="cls-6" d="M33.86,109.38h0c-.3,0-.62-.03-.93-.08-2.63-.48-4.26-2.48-4.26-5.24s1.89-4.88,4.22-4.88c.46,0,.91.08,1.34.25.76-.22,1.54-.22,2.25.02.93.31,1.69,1.01,2.14,1.95.59,1.23.63,2.77.1,4.21-.86,2.35-2.68,3.76-4.87,3.76ZM32.9,100.38c-1.67,0-3.02,1.65-3.02,3.68,0,2.17,1.22,3.69,3.27,4.06.24.04.48.06.71.06h0c1.66,0,3.06-1.11,3.74-2.97.42-1.14.4-2.34-.05-3.28-.32-.66-.82-1.13-1.45-1.34-.53-.18-1.11-.16-1.69.05-.15.05-.31.05-.45-.02-.34-.16-.7-.23-1.06-.23Z"/>
    </g>
    <path class="cls-6" d="M54.63,5.78c-.71.33-1.39.4-1.42.4-.24.02-.47-.1-.59-.32-.04-.07-.95-1.83-.15-3.32.73-1.34,2.88-2.37,3.12-2.49.17-.08.37-.08.54.01.17.09.28.25.31.44.04.26.36,2.62-.38,3.98-.3.55-.78.98-1.44,1.29ZM53.52,4.9c.17-.05.38-.11.6-.21.42-.2.72-.46.89-.77.31-.58.35-1.59.32-2.36-.67.4-1.49.98-1.8,1.56-.32.59-.16,1.34,0,1.79Z"/>
    <g>
        <path class="cls-6" d="M43.14,10.45c-.3.14-.66.01-.8-.29-1.14-2.44-.35-5.22,1.76-6.21.83-.39,1.75-.38,2.65.03,1.18.53,2.18,1.7,2.56,2.99.09.32-.09.65-.41.75-.32.09-.65-.09-.74-.41-.28-.95-1.04-1.85-1.9-2.23-.4-.18-1.01-.33-1.65-.03-1.51.7-2.04,2.77-1.18,4.61.14.3.01.66-.29.8Z"/>
        <path class="cls-6" d="M49.29,12.79h0c-.28.13-.57.24-.88.32-2.58.68-4.91-.45-6.07-2.94-1.14-2.44-.35-5.22,1.76-6.21.41-.19.86-.31,1.32-.34.6-.53,1.31-.85,2.05-.93.97-.11,1.96.2,2.77.87,1.06.87,1.74,2.24,1.87,3.77.22,2.5-.84,4.54-2.82,5.46ZM44.61,5.04c-1.51.7-2.04,2.77-1.18,4.61.92,1.97,2.67,2.82,4.68,2.29.24-.06.46-.14.67-.24h0c1.51-.7,2.3-2.3,2.13-4.27-.11-1.21-.63-2.29-1.44-2.95-.57-.47-1.22-.67-1.88-.6-.55.06-1.08.32-1.52.76-.11.11-.26.17-.42.17-.37,0-.73.08-1.06.24Z"/>
    </g>
    <g>
        <path class="cls-6" d="M45.5,113.27c-1.94,0-3.51-1.58-3.51-3.51s1.58-3.51,3.51-3.51,3.51,1.58,3.51,3.51-1.58,3.51-3.51,3.51ZM45.5,107.44c-1.28,0-2.31,1.04-2.31,2.31s1.04,2.31,2.31,2.31,2.31-1.04,2.31-2.31-1.04-2.31-2.31-2.31Z"/>
        <path class="cls-6" d="M46.39,110.36c-.33,0-.6-.27-.6-.6,0-.16-.13-.29-.29-.29-.33,0-.6-.27-.6-.6s.27-.6.6-.6c.82,0,1.49.67,1.49,1.49,0,.33-.27.6-.6.6Z"/>
    </g>
    <g>
        <path class="cls-6" d="M39.84,74.43c-1.63,0-2.95-1.32-2.95-2.95s1.32-2.95,2.95-2.95,2.95,1.32,2.95,2.95-1.32,2.95-2.95,2.95ZM39.84,69.54c-1.07,0-1.94.87-1.94,1.94s.87,1.94,1.94,1.94,1.94-.87,1.94-1.94-.87-1.94-1.94-1.94Z"/>
        <path class="cls-6" d="M40.58,71.99c-.28,0-.5-.23-.5-.5,0-.13-.11-.24-.24-.24-.28,0-.5-.23-.5-.5s.22-.5.5-.5c.69,0,1.25.56,1.25,1.25,0,.28-.22.5-.5.5Z"/>
    </g>
    <path class="cls-4" d="M66.87,74.99c-.36-.42-1-.46-1.41-.1-.05.04-2.92,2.51-7.64,5.27.4-1.69-.96-3.77-3.28-4.85-2.54-1.18-8.05-.05-7.65.3.4.35,2.15,4.87,4.69,6.06.76.35,1.54.56,2.28.63-1.57.77-3.26,1.52-5.05,2.21.47-1.47-.22-3.5-1.84-5.05-2.03-1.94-7.61-2.62-7.35-2.16.26.46.48,5.3,2.51,7.24.69.66,1.47,1.14,2.25,1.44-1.63.46-3.25.83-4.84,1.11.66-1.3.5-3.27-.54-5.06-1.42-2.42-6.59-4.62-6.47-4.11.12.52-1.01,5.23.41,7.65.51.86,1.15,1.57,1.85,2.07-1.85.11-3.67.08-5.47-.08,1.23-1.01,1.69-3.21.99-5.44-.84-2.68-5.39-5.98-5.38-5.45,0,.53-2.15,4.87-1.31,7.55.35,1.12.94,2.07,1.64,2.75-2.41-.49-4.76-1.24-7.05-2.23.48.11.96.09,1.42-.07,1.83-.63,2.58-3.29,1.66-5.95-.91-2.66-5.55-5.83-5.53-5.3.02.53-2.01,4.92-1.1,7.58.48,1.38,1.31,2.49,2.25,3.14-1.41-.68-2.81-1.45-4.18-2.32.56-1.97-.86-4.53-3.48-6.04-2.93-1.68-9.65-.88-9.22-.42.44.46,2.08,6.06,5.01,7.75,2.38,1.36,5,1.44,6.53.34,1.38.88,2.76,1.64,4.14,2.31-1.09.25-2.24.91-3.2,1.95-1.9,2.06-2.49,7.66-2.03,7.39.46-.27,5.29-.57,7.19-2.63,1.54-1.67,2.09-3.79,1.48-5.23,1.42.52,2.83.95,4.22,1.3-.75.4-1.47.99-2.09,1.76-1.75,2.19-1.94,7.81-1.51,7.51.44-.3,5.24-.94,6.99-3.14,1.42-1.78,1.81-3.92,1.11-5.32,1.45.18,2.88.27,4.28.28-.3.25-.6.53-.87.84-1.84,2.12-2.26,7.73-1.81,7.44.45-.28,5.27-.73,7.11-2.85,1.66-1.92,2.06-4.34,1.05-5.73,1.67-.2,3.28-.48,4.83-.83-.45.52-.84,1.15-1.14,1.87-1.08,2.59.29,8.05.62,7.64.34-.41,4.77-2.35,5.85-4.94.98-2.36.59-4.82-.85-5.79.25-.08.49-.16.73-.24,1.91-.65,3.71-1.38,5.39-2.15-.11.23-.2.48-.28.73-.64,2.11.85,6.26,1.08,5.91.23-.35,3.54-2.21,4.18-4.31.55-1.82.13-3.62-.94-4.35,1.52-.83,2.9-1.65,4.09-2.42-.05.14-.09.28-.12.43-.29,1.38.9,3.95,1.03,3.71.13-.23,2.14-1.61,2.43-3,.26-1.24-.15-2.4-.93-2.77,1.92-1.36,3.04-2.32,3.16-2.43.42-.36.46-1,.1-1.41Z"/>
    <g>
        <path class="cls-6" d="M87.27,53.08c-.49.26-.25,1.65.12,3.17,1.01,4.1,2.24,4.6,5.47,4.7.14,1.42-.02,3.19-1.62,3.51-.15.47.74,1.08,1.59,1.08.36,0,.72-.11.99-.38.65-.66,1.43-2.82,1.34-4.35.14-.02.27-.04.41-.06,4.95-.82,5.15-6.56,4.86-7.66h0c-.14-.55-.37-.77-.66-.77s-.66.23-1.07.6c-1.29,1.13-2.9,1.97-2.9,1.97,0,0-.85-1.78-1.9-2.69-.28-.24-.52-.34-.74-.34-.6,0-.96.77-1.18,1.43-.26.8-.82,2.23-1.54,2.23-.1,0-.2-.03-.3-.08-1.1-.61-1.87-1.92-2.44-2.28-.1-.06-.19-.1-.28-.1-.05,0-.1.01-.15.04Z"/>
        <path class="cls-8" d="M86.1,9.53c-9.04-4.71-20.99-1.79-21.1,9.82.02,6,2.53,15.35,15.2,20.64,5.43,2.59,6.99,6.93,7.45,12.45.47.11.86.54,1.32,1.08.42.48.91,1.03,1.47,1.35.09-.06.47-.37.94-1.79.41-1.24,1.01-1.87,1.78-1.87.38,0,.77.17,1.15.49.75.64,1.38,1.65,1.74,2.29.56-.33,1.46-.9,2.22-1.57.59-.52,1.05-.75,1.49-.75.24,0,.6.07.9.45,2.08-8.7,5.1-30.98-14.58-42.58ZM90.34,18.95c-.19.16-.42.24-.65.24-.28,0-.57-.12-.77-.35-7.71-9.11-16.07-3.68-16.43-3.45-.46.31-1.08.19-1.39-.27-.31-.46-.19-1.08.27-1.39.1-.07,2.59-1.72,6.18-2.08,3.33-.33,8.27.43,12.9,5.9.36.42.3,1.05-.12,1.41Z"/>
    </g>
    <g>
        <path class="cls-7" d="M11.98,66.38c-9.27-7.62-10.16-18.68-4.03-25.26.8-.86,1.58-1.53,2.34-2.06-1.71.27-3.54,1.3-5.48,3.39-6.13,6.59-5.24,17.65,4.03,25.26,5.03,4.13,12.79,7.84,18.81,6.28.89-.23,1.72-.64,2.44-1.18-5.91,1.11-13.27-2.46-18.11-6.44Z"/>
        <path class="cls-7" d="M32.8,57.83c-4.6-4.27-12.14-29.72-23.85-17.14-6.13,6.59-5.24,17.65,4.03,25.27,5.03,4.13,12.79,7.84,18.81,6.28,4.97-1.29,8.01-7.91,1.01-14.41ZM34.43,66.26c-.53,2.04-2.14,3.64-4.2,4.16-.6.15-1.24.25-1.9.28h0c-4.94.24-10.46-2.84-13.98-5.8-4.07-3.42-6.47-7.8-6.77-12.33-.24-3.57.9-6.93,3.19-9.45,1.71-1.88,3.45-2.88,5.18-2.96,4.89-.23,8.65,6.64,11.67,12.16,1.34,2.44,2.49,4.56,3.45,5.47,3.89,3.69,3.77,6.9,3.36,8.48Z"/>
        <path class="cls-7" d="M27.12,52.58c-2.79-5.1-6.61-12.08-11.15-11.87-1.57.07-3.18,1.01-4.79,2.77-2.19,2.41-3.27,5.61-3.05,9.03.29,4.37,2.63,8.61,6.58,11.93,3.28,2.76,8.81,5.9,13.59,5.67h0c.62-.03,1.23-.12,1.79-.26,1.86-.47,3.31-1.91,3.79-3.75.38-1.46.47-4.44-3.2-7.93-1.02-.97-2.2-3.12-3.56-5.6ZM29.38,66.67c-1.29.55-2.87-.29-3.54-1.86-.67-1.57-.16-3.29,1.12-3.84,1.29-.55,2.87.29,3.54,1.86.67,1.57.16,3.29-1.12,3.84Z"/>
    </g>
    <path class="cls-6" d="M42.92,23.92c2.98-2.22,4.06-7.66.95-9.16-3.23-1.56-6.03,2.59-6.03,2.59,0,0,2.47-10.29-5.52-10.27-4.65.02-5.72,5.2-5.17,7.29-1.23-1.45-6.31-2.82-8.21.45-1.58,2.72,1.08,6.99,2.88,7.83-4.76-.44-6.58,6.28.25,7.4-4.9.39-3.86,5.7,1,6.85,4.23,1.5,5.89,2.73,8.8,11.08.35,2.87.51,5.82.08,6.9.86,1.12,2.23.6,2.58.19.21-.24-.55-4.05-1.01-7.79,0-.02,0-.03.01-.05-.64-1.84-1.93-6.08-2.63-11.96-.95-8.02-.57-11.22,0-11.45.26,3.82,1.59,18.15,2.69,23.21,1.1-4.14,1.73-7.76,8.38-12.69,7.36-4.63,4.75-12.37.96-10.41Z"/>
</svg>
